<svg xmlns="http://www.w3.org/2000/svg" version="1.1" xmlns:xlink="http://www.w3.org/1999/xlink" xmlns:svgjs="http://svgjs.dev/svgjs" viewBox="0 0 800 800"><defs><filter id="bbburst-blur-1" x="-100%" y="-100%" width="400%" height="400%"><feGaussianBlur in="SourceGraphic" stdDeviation="1"></feGaussianBlur></filter><filter id="bbburst-blur-2" x="-100%" y="-100%" width="400%" height="400%"><feGaussianBlur in="SourceGraphic" stdDeviation="2"></feGaussianBlur></filter><filter id="bbburst-blur-3" x="-100%" y="-100%" width="400%" height="400%"><feGaussianBlur in="SourceGraphic" stdDeviation="4"></feGaussianBlur></filter><filter id="bbburst-blur-4" x="-100%" y="-100%" width="400%" height="400%"><feGaussianBlur in="SourceGraphic" stdDeviation="12"></feGaussianBlur></filter><symbol id="bbburst-shape-1" viewBox="0 0 194 167"><path d="m97 0 96.129 166.5H.871L97 0Z"></path></symbol><symbol id="bbburst-shape-4" viewBox="0 0 149 143"><path d="M71.647 2.781c.898-2.764 4.808-2.764 5.706 0l15.445 47.534a3 3 0 0 0 2.853 2.073h49.98c2.906 0 4.115 3.719 1.764 5.427L106.96 87.193a2.999 2.999 0 0 0-1.09 3.354l15.445 47.534c.898 2.764-2.266 5.062-4.617 3.354l-40.435-29.378a3 3 0 0 0-3.526 0l-40.435 29.378c-2.351 1.708-5.515-.59-4.617-3.354L43.13 90.547a3 3 0 0 0-1.09-3.354L1.605 57.815c-2.35-1.708-1.142-5.427 1.764-5.427h49.98a3 3 0 0 0 2.853-2.073L71.647 2.781Z"></path></symbol><symbol id="bbburst-shape-6" viewBox="0 0 133 116"><path d="M59.7487 10.2513c-13.6683-13.66839-35.8291-13.66839-49.4974 0-13.66839 13.6683-13.66839 35.8291 0 49.4974l49.4974-49.4974ZM66.5 66.5 41.7513 91.2487 66.5 115.997l24.7487-24.7483L66.5 66.5Zm56.249-6.7513c13.668-13.6683 13.668-35.8291 0-49.4974-13.669-13.66839-35.8294-13.66839-49.4977 0l49.4977 49.4974Zm-112.4977 0 31.5 31.5 49.4974-49.4974-31.5-31.5-49.4974 49.4974Zm80.9974 31.5 31.5003-31.5-49.4977-49.4974-31.5 31.5 49.4974 49.4974Z"></path></symbol><symbol id="bbburst-shape-8" viewBox="0 0 87 168"><path d="m12 12 31.2546 18.0749c16.4102 9.4902 20.014 31.6325 7.4603 45.8369L36.3296 92.1884c-12.5684 14.2206-8.9394 36.3916 7.5068 45.8636L75 156" stroke-width="14" stroke-linecap="round" stroke-linejoin="round"></path></symbol><symbol id="bbburst-shape-10" viewBox="0 0 145 145"><circle cx="72.5" cy="72.5" r="61.5" fill="none" stroke-width="22"></circle></symbol></defs><use xlink:href="#bbburst-shape-6" width="21.07780580198718" opacity="0.49513174858347486" transform="matrix(0.9595942017755187,-0.2813875759851617,0.2813875759851617,0.9595942017755187,121.28804814577917,-145.99586744077848)" fill="#2c2891" filter="url(#bbburst-blur-2)"></use><use xlink:href="#bbburst-shape-4" width="35.270106484755324" opacity="0.03903237098224088" transform="matrix(1.5359501332977128,0.838663930321758,-0.838663930321758,1.5359501332977128,345.03969933075655,5.409602205921601)" fill="#00a19d" filter="url(#bbburst-blur-4)"></use><use xlink:href="#bbburst-shape-4" width="21.65845125017637" opacity="0.4993264931800818" transform="matrix(0.8295495412811307,0.5584331281006399,-0.5584331281006399,0.8295495412811307,461.31374212197045,227.47464392726135)" fill="#00a19d" filter="url(#bbburst-blur-2)"></use><use xlink:href="#bbburst-shape-6" width="13.705010612397942" opacity="0.6269095743693511" transform="matrix(0.9005987848000844,0.4346513876851325,-0.4346513876851325,0.9005987848000844,439.51947595952146,145.22489105255318)" fill="#2c2891" filter="url(#bbburst-blur-1)"></use><use xlink:href="#bbburst-shape-4" width="9.468886722230842" opacity="0.8917914620878241" transform="matrix(0.9985581665229405,-0.05368042539272072,0.05368042539272072,0.9985581665229405,405.715140456436,-35.93763901883602)" fill="#2c2891"></use><use xlink:href="#bbburst-shape-8" width="27.413684509927627" opacity="0.4013241834823006" transform="matrix(0.9935037716314888,-0.11379919048045292,0.11379919048045292,0.9935037716314888,561.3246209954061,158.99707204415955)" fill="none" stroke="#2c2891" filter="url(#bbburst-blur-2)"></use><use xlink:href="#bbburst-shape-4" width="11.665983096689907" opacity="0.8303472306866113" transform="matrix(0.8438853682219749,-0.5365235179382744,0.5365235179382744,0.8438853682219749,244.75433057099985,106.77160484587517)" fill="#2c2891"></use><use xlink:href="#bbburst-shape-4" width="27.240270141009752" opacity="0.18074379022553566" transform="matrix(1.2007667979117613,0.34736018343030506,-0.34736018343030506,1.2007667979117613,553.4479955011667,282.3626847058812)" fill="#ffbd9b" filter="url(#bbburst-blur-3)"></use><use xlink:href="#bbburst-shape-4" width="27.19995702774935" opacity="0.275902723506676" transform="matrix(1.1502809095435238,-0.4892380086826082,0.4892380086826082,1.1502809095435238,-137.12954782507273,-58.612958004242046)" fill="#2c2891" filter="url(#bbburst-blur-3)"></use><use xlink:href="#bbburst-shape-4" width="37.35061159238741" opacity="0.23306116800246202" transform="matrix(1.215469842381607,0.29177570539856656,-0.29177570539856656,1.215469842381607,196.86900893753668,83.96640786177744)" fill="#ffa6d5" filter="url(#bbburst-blur-3)"></use><use xlink:href="#bbburst-shape-6" width="13.509956756974827" opacity="0.6541210683467947" transform="matrix(0.8888498200091719,0.4581986441159147,-0.4581986441159147,0.8888498200091719,601.7305063466308,-112.34720753999056)" fill="#00a19d" filter="url(#bbburst-blur-1)"></use><use xlink:href="#bbburst-shape-10" width="7.70579857588759" opacity="0.9521467159601447" transform="matrix(0.7334567670988554,-0.6797361037909457,0.6797361037909457,0.7334567670988554,104.08587214630444,113.04900672872117)" fill="none" stroke="#ffa6d5"></use><use xlink:href="#bbburst-shape-10" width="12.770983578792302" opacity="0.8292919061587083" transform="matrix(0.8207837355837474,-0.5712390562638281,0.5712390562638281,0.8207837355837474,185.52506078358124,149.69870690671223)" fill="none" stroke="#ffa6d5"></use><use xlink:href="#bbburst-shape-8" width="10.95916716767408" opacity="0.8155567366128454" transform="matrix(0.8930952032909015,-0.4498677115094874,0.4498677115094874,0.8930952032909015,281.6198170890598,-4.49105473143635)" fill="none" stroke="#00a19d"></use><use xlink:href="#bbburst-shape-10" width="5.342170546738467" opacity="0.9472638748443274" transform="matrix(0.9377412265004622,0.347334697548933,-0.347334697548933,0.9377412265004622,531.3260176927794,0.7996589097293167)" fill="none" stroke="#2c2891"></use><use xlink:href="#bbburst-shape-10" width="10.029571731339919" opacity="0.7806403818702659" transform="matrix(0.7462539596145088,-0.6656613461510794,0.6656613461510794,0.7462539596145088,132.59743948915525,203.51404270228153)" fill="none" stroke="#2c2891"></use><use xlink:href="#bbburst-shape-4" width="9.823178928826692" opacity="0.915922053252427" transform="matrix(0.9953804184003857,-0.09600949257793817,0.09600949257793817,0.9953804184003857,391.3844527032657,-12.806008070632856)" fill="#00a19d"></use><use xlink:href="#bbburst-shape-1" width="17.59148787997097" opacity="0.5901755818056208" transform="matrix(0.9302702764184645,-0.3668749280235892,0.3668749280235892,0.9302702764184645,294.56568311535113,-146.51666868695003)" fill="#00a19d" filter="url(#bbburst-blur-1)"></use><use xlink:href="#bbburst-shape-8" width="21.995373519436257" opacity="0.5178464023150636" transform="matrix(0.7915549217374255,-0.6110980329482809,0.6110980329482809,0.7915549217374255,91.6909554089911,-119.74045141739316)" fill="none" stroke="#ffa6d5" filter="url(#bbburst-blur-2)"></use><use xlink:href="#bbburst-shape-6" width="15.004657424755756" opacity="0.6249249382285436" transform="matrix(0.8485103629666666,0.5291787636878258,-0.5291787636878258,0.8485103629666666,504.03740713253995,191.65449433204589)" fill="#ffa6d5" filter="url(#bbburst-blur-1)"></use><use xlink:href="#bbburst-shape-10" width="15.317297951391016" opacity="0.6173659856854643" transform="matrix(0.9792508047517909,-0.20265206979690553,0.20265206979690553,0.9792508047517909,175.76212968605176,-96.1645488496008)" fill="none" stroke="#2c2891" filter="url(#bbburst-blur-1)"></use><use xlink:href="#bbburst-shape-6" width="10.182625029726118" opacity="0.7859605135414007" transform="matrix(0.727749253550896,-0.68584329402285,0.68584329402285,0.727749253550896,177.18350971018663,33.479551517769096)" fill="#2c2891"></use><use xlink:href="#bbburst-shape-8" width="25.894943518745535" opacity="0.21923759579488422" transform="matrix(0.9434961739901949,-0.8199481505960384,0.8199481505960384,0.9434961739901949,-137.64514206333652,323.8299725285976)" fill="none" stroke="#ffa6d5" filter="url(#bbburst-blur-3)"></use><use xlink:href="#bbburst-shape-6" width="12.059809903271903" opacity="0.820970720106979" transform="matrix(0.788421255913638,-0.6151356949678353,0.6151356949678353,0.788421255913638,228.30667465928184,103.54761669080449)" fill="#2c2891"></use><use xlink:href="#bbburst-shape-4" width="30.07978750463257" opacity="0.3144526007382723" transform="matrix(1.2490033250609485,0.049906853103504345,-0.049906853103504345,1.2490033250609485,688.0622979944765,13.11272933073559)" fill="#2c2891" filter="url(#bbburst-blur-3)"></use><use xlink:href="#bbburst-shape-4" width="24.943039243029624" opacity="0.38029839195047455" transform="matrix(0.7918280591183064,0.6107440747096411,-0.6107440747096411,0.7918280591183064,865.7473054592836,-80.04932617376278)" fill="#ffa6d5" filter="url(#bbburst-blur-2)"></use><use xlink:href="#bbburst-shape-4" width="26.528697590235574" opacity="0.4731807641482061" transform="matrix(0.9161458689745828,-0.40084504083349515,0.40084504083349515,0.9161458689745828,445.80125617693216,-53.61057279505769)" fill="#ff5c58" filter="url(#bbburst-blur-2)"></use><use xlink:href="#bbburst-shape-4" width="28.288872524209232" opacity="0.37457695456466955" transform="matrix(0.9358866183264553,-0.3523013449271402,0.3523013449271402,0.9358866183264553,159.3732307059883,-237.1726196931487)" fill="#ff5c58" filter="url(#bbburst-blur-2)"></use><use xlink:href="#bbburst-shape-4" width="35.91949575944537" opacity="0.22011022505602806" transform="matrix(1.0180607833316067,-0.7252945894202132,0.7252945894202132,1.0180607833316067,382.25162171544775,202.55920019090343)" fill="#00a19d" filter="url(#bbburst-blur-3)"></use><use xlink:href="#bbburst-shape-6" width="8.045373878680799" opacity="0.965254348895982" transform="matrix(0.7686921083024062,-0.6396189823899865,0.6396189823899865,0.7686921083024062,156.31276847885258,91.65656784623434)" fill="#ffbd9b"></use><use xlink:href="#bbburst-shape-10" width="28.735840156700704" opacity="0.4228472430706015" transform="matrix(0.7663437999438868,-0.6424306813093255,0.6424306813093255,0.7663437999438868,4.052514161018053,328.69932195220304)" fill="none" stroke="#2c2891" filter="url(#bbburst-blur-2)"></use><use xlink:href="#bbburst-shape-6" width="10.274880605487994" opacity="0.7996774462305434" transform="matrix(0.9538017162610345,0.3004368254017892,-0.3004368254017892,0.9538017162610345,439.22103340188437,-31.45832579748628)" fill="#2c2891"></use><use xlink:href="#bbburst-shape-1" width="15.367313856090892" opacity="0.5899152023936172" transform="matrix(0.7992482010607838,-0.6010010924292076,0.6010010924292076,0.7992482010607838,109.69287713975586,264.20480634597186)" fill="#00a19d" filter="url(#bbburst-blur-1)"></use><use xlink:href="#bbburst-shape-8" width="14.607405338829263" opacity="0.7088401115069836" transform="matrix(0.9810229029026545,-0.19389188735078333,0.19389188735078333,0.9810229029026545,413.9301917586421,95.2306622439047)" fill="none" stroke="#2c2891" filter="url(#bbburst-blur-1)"></use><use xlink:href="#bbburst-shape-1" width="12.758504010499092" opacity="0.7623919973123243" transform="matrix(0.7168284428738777,-0.6972495847879809,0.6972495847879809,0.7168284428738777,66.35137667386061,212.14168118720067)" fill="#00a19d" filter="url(#bbburst-blur-1)"></use><use xlink:href="#bbburst-shape-4" width="9.821380447322403" opacity="0.7763147388737786" transform="matrix(0.8493565316160164,0.5278195545839609,-0.5278195545839609,0.8493565316160164,707.6079416038989,56.94986908831004)" fill="#ff5c58" filter="url(#bbburst-blur-1)"></use><use xlink:href="#bbburst-shape-6" width="30.26303238164521" opacity="0.37516261436616194" transform="matrix(0.9695051063949376,0.24507110942365443,-0.24507110942365443,0.9695051063949376,254.35587976868595,171.64114721067943)" fill="#00a19d" filter="url(#bbburst-blur-2)"></use><use xlink:href="#bbburst-shape-6" width="6.455348629822241" opacity="0.943513764112161" transform="matrix(0.9998956842681885,-0.01444370388269856,0.01444370388269856,0.9998956842681885,377.871800851931,21.857496454095383)" fill="#2c2891"></use><use xlink:href="#bbburst-shape-6" width="28.905306332165644" opacity="0.4856008934447297" transform="matrix(0.9983884620556794,-0.05674926285067546,0.05674926285067546,0.9983884620556794,514.8284364312892,176.08391885415386)" fill="#ffa6d5" filter="url(#bbburst-blur-2)"></use><use xlink:href="#bbburst-shape-6" width="18.766073342918425" opacity="0.699598511364573" transform="matrix(0.9484647011219728,-0.31688280282402004,0.31688280282402004,0.9484647011219728,131.77299496084933,-2.8287492804377052)" fill="#2c2891" filter="url(#bbburst-blur-1)"></use><use xlink:href="#bbburst-shape-1" width="26.81582336305082" opacity="0.47291440009722263" transform="matrix(0.9968572869784981,-0.07921836528146903,0.07921836528146903,0.9968572869784981,410.9942784937626,232.8257793569723)" fill="#00a19d" filter="url(#bbburst-blur-2)"></use><use xlink:href="#bbburst-shape-8" width="6.471476744158704" opacity="0.8755908465605775" transform="matrix(0.8994037959067331,0.43711876178969894,-0.43711876178969894,0.8994037959067331,567.2491228240808,94.61155860689104)" fill="none" stroke="#ff5c58"></use><use xlink:href="#bbburst-shape-6" width="26.82214850821648" opacity="0.37335849180027314" transform="matrix(0.9059579353004222,-0.423367711884357,0.423367711884357,0.9059579353004222,498.5309632316032,76.49227226461744)" fill="#ff5c58" filter="url(#bbburst-blur-2)"></use><use xlink:href="#bbburst-shape-4" width="19.23407033985705" opacity="0.5911082527957079" transform="matrix(0.9093907102313181,-0.41594294818517946,0.41594294818517946,0.9093907102313181,212.6846165941968,-143.33665506213487)" fill="#2c2891" filter="url(#bbburst-blur-1)"></use><use xlink:href="#bbburst-shape-6" width="20.758153307220393" opacity="0.5331925271560963" transform="matrix(0.9690228678350248,-0.24697101370967414,0.24697101370967414,0.9690228678350248,288.79731522489544,225.00456816391136)" fill="#00a19d" filter="url(#bbburst-blur-2)"></use><use xlink:href="#bbburst-shape-8" width="27.89852831228915" opacity="0.14414678332539155" transform="matrix(1.084996986102182,-0.6207105123559467,0.6207105123559467,1.084996986102182,-213.2820918534545,-186.34980264697128)" fill="none" stroke="#ffbd9b" filter="url(#bbburst-blur-3)"></use><use xlink:href="#bbburst-shape-4" width="14.053688043438799" opacity="0.7229143123766354" transform="matrix(0.9016646285043883,-0.43243600417176564,0.43243600417176564,0.9016646285043883,197.81976358567613,164.9565452818914)" fill="#00a19d" filter="url(#bbburst-blur-1)"></use><use xlink:href="#bbburst-shape-4" width="11.835068840908253" opacity="0.6827796027356617" transform="matrix(0.877928753743824,0.47879129414580646,-0.47879129414580646,0.877928753743824,685.3680405643381,-56.786669559848235)" fill="#00a19d" filter="url(#bbburst-blur-1)"></use><use xlink:href="#bbburst-shape-6" width="26.84330601018395" opacity="0.052223677005971414" transform="matrix(1.4601361096494885,-0.9646255964350401,0.9646255964350401,1.4601361096494885,-225.63890829551224,-536.3706047698375)" fill="#ffa6d5" filter="url(#bbburst-blur-4)"></use><use xlink:href="#bbburst-shape-4" width="24.417995171949546" opacity="0.42952099474584604" transform="matrix(0.870112826091033,0.4928525843209872,-0.4928525843209872,0.870112826091033,346.45592273431083,136.94272173744724)" fill="#ff5c58" filter="url(#bbburst-blur-2)"></use><use xlink:href="#bbburst-shape-6" width="14.06623198842454" opacity="0.7396184437892147" transform="matrix(0.8810364700041942,-0.4730483469187358,0.4730483469187358,0.8810364700041942,87.55038544373903,56.59291144663422)" fill="#2c2891" filter="url(#bbburst-blur-1)"></use><use xlink:href="#bbburst-shape-8" width="10.064887585461076" opacity="0.9124682211757559" transform="matrix(0.9612430209567763,-0.2757024748925743,0.2757024748925743,0.9612430209567763,246.0467321333167,10.304671605265753)" fill="none" stroke="#ffbd9b"></use><use xlink:href="#bbburst-shape-10" width="12.876972672349295" opacity="0.8366490505072519" transform="matrix(0.9902198739876267,-0.13951559468363647,0.13951559468363647,0.9902198739876267,303.84052128700955,69.9941427195784)" fill="none" stroke="#ffa6d5"></use><use xlink:href="#bbburst-shape-10" width="15.741401236018712" opacity="0.6756901047817518" transform="matrix(0.8475618843851829,-0.5306965725698989,0.5306965725698989,0.8475618843851829,124.02341841152824,199.48849358417266)" fill="none" stroke="#ffa6d5" filter="url(#bbburst-blur-1)"></use><use xlink:href="#bbburst-shape-4" width="30.775303121573323" opacity="0.3169652563441677" transform="matrix(1.2423469061316192,0.13810924960042847,-0.13810924960042847,1.2423469061316192,508.2235741605317,199.7602007703843)" fill="#ffa6d5" filter="url(#bbburst-blur-3)"></use><use xlink:href="#bbburst-shape-6" width="14.07651993850331" opacity="0.7671481600548665" transform="matrix(0.971161380333654,-0.23842309734677947,0.23842309734677947,0.971161380333654,391.89370735005406,59.31223566072026)" fill="#2c2891" filter="url(#bbburst-blur-1)"></use><use xlink:href="#bbburst-shape-8" width="12.891321205093622" opacity="0.6766409548049281" transform="matrix(0.7439165727278985,-0.6682724989259826,0.6682724989259826,0.7439165727278985,120.44068171326063,-38.579637148680916)" fill="none" stroke="#ffa6d5" filter="url(#bbburst-blur-1)"></use><use xlink:href="#bbburst-shape-8" width="24.326863452173793" opacity="0.11862607968279548" transform="matrix(1.2497345099025863,-0.025761497598988596,0.025761497598988596,1.2497345099025863,738.0267495549655,59.00774742675685)" fill="none" stroke="#ffa6d5" filter="url(#bbburst-blur-3)"></use><use xlink:href="#bbburst-shape-4" width="20.088420483022436" opacity="0.4050148494009046" transform="matrix(0.8687590440642319,-0.49523501830605837,0.49523501830605837,0.8687590440642319,241.4055094100387,-205.87952800546293)" fill="#ffbd9b" filter="url(#bbburst-blur-2)"></use><use xlink:href="#bbburst-shape-8" width="13.4565106322836" opacity="0.7428851552713052" transform="matrix(0.9736135373576829,-0.22820315482889345,0.22820315482889345,0.9736135373576829,251.98800349778463,-92.16375744494474)" fill="none" stroke="#00a19d" filter="url(#bbburst-blur-1)"></use><use xlink:href="#bbburst-shape-10" width="7.251886831928604" opacity="0.9598373567457922" transform="matrix(0.9996987398028551,-0.02454444207114073,0.02454444207114073,0.9996987398028551,372.5167246090877,-11.170325446441836)" fill="none" stroke="#00a19d"></use><use xlink:href="#bbburst-shape-10" width="16.028685593230215" opacity="0.6657682128944395" transform="matrix(0.9527519372439458,-0.30374947914014316,0.30374947914014316,0.9527519372439458,202.02492242677516,-112.39212615796811)" fill="none" stroke="#00a19d" filter="url(#bbburst-blur-1)"></use><use xlink:href="#bbburst-shape-1" width="14.509170241897055" opacity="0.7887304520322231" transform="matrix(0.8185128358814664,-0.5744882396509781,0.5744882396509781,0.8185128358814664,71.86079528707145,54.468395034434934)" fill="#ff5c58"></use><use xlink:href="#bbburst-shape-6" width="13.266928093869936" opacity="0.63314008030449" transform="matrix(0.7429853039877021,0.6693077304635752,-0.6693077304635752,0.7429853039877021,497.9800529213187,107.84888592131142)" fill="#ff5c58" filter="url(#bbburst-blur-1)"></use><use xlink:href="#bbburst-shape-10" width="12.684063200734352" opacity="0.7286440831571318" transform="matrix(0.9953720828670344,-0.09609587217431156,0.09609587217431156,0.9953720828670344,255.31201732747735,72.62827498876715)" fill="none" stroke="#ffbd9b" filter="url(#bbburst-blur-1)"></use><use xlink:href="#bbburst-shape-4" width="14.546565982916018" opacity="0.6946387655463211" transform="matrix(0.7728587798044062,-0.6345780538903345,0.6345780538903345,0.7728587798044062,277.3936607506129,82.9267610444004)" fill="#ffa6d5" filter="url(#bbburst-blur-1)"></use><use xlink:href="#bbburst-shape-6" width="8.963467385814885" opacity="0.8566305848836377" transform="matrix(0.7717171502764085,-0.6359659110119497,0.6359659110119497,0.7717171502764085,93.96040037666307,137.05422614437475)" fill="#2c2891"></use><use xlink:href="#bbburst-shape-6" width="15.09410344616198" opacity="0.6751966483299521" transform="matrix(0.9999395530074214,-0.010995013929874783,0.010995013929874783,0.9999395530074214,444.8743181069571,-134.55817487484444)" fill="#ff5c58" filter="url(#bbburst-blur-1)"></use><use xlink:href="#bbburst-shape-4" width="14.187936918693644" opacity="0.6695088208372175" transform="matrix(0.9777694255335057,0.20968297616134313,-0.20968297616134313,0.9777694255335057,530.2262911902045,146.26221553436028)" fill="#00a19d" filter="url(#bbburst-blur-1)"></use><use xlink:href="#bbburst-shape-4" width="31.241942952333872" opacity="0.2010159227291045" transform="matrix(1.2469089156689948,-0.08785303651651338,0.08785303651651338,1.2469089156689948,516.3372219265677,-413.65603796257267)" fill="#ffa6d5" filter="url(#bbburst-blur-3)"></use><use xlink:href="#bbburst-shape-8" width="10.646232312552879" opacity="0.8088786492562827" transform="matrix(0.8868520606351573,-0.46205348450928835,0.46205348450928835,0.8868520606351573,236.88644606374578,-34.12452865802038)" fill="none" stroke="#ff5c58"></use><use xlink:href="#bbburst-shape-6" width="12.62736188109911" opacity="0.7137649871967184" transform="matrix(0.8554559403954062,0.517875597071547,-0.517875597071547,0.8554559403954062,672.1554448085178,-53.312369796594396)" fill="#00a19d" filter="url(#bbburst-blur-1)"></use><use xlink:href="#bbburst-shape-8" width="12.677278212650396" opacity="0.7330887010394227" transform="matrix(0.9009138768551938,0.43399791069744204,-0.43399791069744204,0.9009138768551938,583.8230811885916,-82.16492315656063)" fill="none" stroke="#2c2891" filter="url(#bbburst-blur-1)"></use><use xlink:href="#bbburst-shape-4" width="15.348709233771459" opacity="0.665189214342413" transform="matrix(0.9846412774214853,-0.17458967551887353,0.17458967551887353,0.9846412774214853,446.5172939169983,-78.21695750580801)" fill="#00a19d" filter="url(#bbburst-blur-1)"></use><use xlink:href="#bbburst-shape-10" width="27.24950098656786" opacity="0.21423329794248336" transform="matrix(1.2282113424720895,-0.23237232671492453,0.23237232671492453,1.2282113424720895,588.1474622552464,-278.7135090450911)" fill="none" stroke="#00a19d" filter="url(#bbburst-blur-3)"></use><use xlink:href="#bbburst-shape-1" width="26.43350982749638" opacity="0.3175483815626824" transform="matrix(1.0345584033204527,0.7015617650064999,-0.7015617650064999,1.0345584033204527,367.6636689375164,-92.00734307142841)" fill="#00a19d" filter="url(#bbburst-blur-3)"></use><use xlink:href="#bbburst-shape-6" width="32.300862255838226" opacity="0.2154122494356201" transform="matrix(1.2262285234883994,-0.24261823547182104,0.24261823547182104,1.2262285234883994,2.4992382770271035,-300.79313058103537)" fill="#2c2891" filter="url(#bbburst-blur-3)"></use><use xlink:href="#bbburst-shape-6" width="10.18974027255769" opacity="0.755557182216206" transform="matrix(0.7720446570810731,0.6355682870255314,-0.6355682870255314,0.7720446570810731,682.2377362559438,193.2029441490173)" fill="#ff5c58" filter="url(#bbburst-blur-1)"></use><use xlink:href="#bbburst-shape-1" width="21.923019460020196" opacity="0.523962281392513" transform="matrix(0.7248562260144432,0.688900175357866,-0.688900175357866,0.7248562260144432,878.5257708068976,139.90521257384847)" fill="#ffbd9b" filter="url(#bbburst-blur-2)"></use><use xlink:href="#bbburst-shape-10" width="9.544008676755654" opacity="0.7540861056103106" transform="matrix(0.9838850445984594,0.17880217844167193,-0.17880217844167193,0.9838850445984594,574.0057440627761,-21.945696836315904)" fill="none" stroke="#ffa6d5" filter="url(#bbburst-blur-1)"></use><use xlink:href="#bbburst-shape-4" width="30.165681440720643" opacity="0.3360229136306757" transform="matrix(0.8725009710759514,-0.4886123775259094,0.4886123775259094,0.8725009710759514,-8.630049265378233,280.33873401085907)" fill="#2c2891" filter="url(#bbburst-blur-2)"></use><use xlink:href="#bbburst-shape-4" width="36.577149560859645" opacity="-0.09164157991583255" transform="matrix(1.2631986630506042,-1.211127217788109,1.211127217788109,1.2631986630506042,-449.4811947988861,-435.75339948965114)" fill="#2c2891" filter="url(#bbburst-blur-4)"></use><use xlink:href="#bbburst-shape-10" width="11.081883849808145" opacity="0.8121174560097217" transform="matrix(0.9058773173972494,0.4235401820667822,-0.4235401820667822,0.9058773173972494,489.1896174336521,73.93024908643372)" fill="none" stroke="#2c2891"></use><use xlink:href="#bbburst-shape-4" width="37.88504316907268" opacity="0.11807900389352133" transform="matrix(1.0755916409163682,-0.6368693916265991,0.6368693916265991,1.0755916409163682,-38.594835273024586,343.4869067411381)" fill="#ff5c58" filter="url(#bbburst-blur-3)"></use><use xlink:href="#bbburst-shape-4" width="34.399172439325206" opacity="0.016928761983029506" transform="matrix(1.6932919061986933,-0.441885189163425,0.441885189163425,1.6932919061986933,553.1244854435874,-11.150709863931638)" fill="#2c2891" filter="url(#bbburst-blur-4)"></use><use xlink:href="#bbburst-shape-6" width="16.2585019021201" opacity="0.6199185178696278" transform="matrix(0.9342613410499839,0.35658904444680517,-0.35658904444680517,0.9342613410499839,377.6300838249066,-43.50187283192764)" fill="#ffa6d5" filter="url(#bbburst-blur-1)"></use><use xlink:href="#bbburst-shape-8" width="24.26762395472642" opacity="0.4050079237964225" transform="matrix(0.9368375631651863,-0.3497647498572655,0.3497647498572655,0.9368375631651863,-18.6135608244889,44.25131072993588)" fill="none" stroke="#2c2891" filter="url(#bbburst-blur-2)"></use><use xlink:href="#bbburst-shape-1" width="20.328726949247713" opacity="0.13851614964912895" transform="matrix(1.2358826533962914,0.18733410536830258,-0.18733410536830258,1.2358826533962914,573.0743968947496,-467.74883081596926)" fill="#2c2891" filter="url(#bbburst-blur-3)"></use><use xlink:href="#bbburst-shape-8" width="14.715219969770782" opacity="0.750475014572691" transform="matrix(0.9168899972012058,0.3991399917727775,-0.3991399917727775,0.9168899972012058,447.5610153683331,69.16363615560073)" fill="none" stroke="#00a19d" filter="url(#bbburst-blur-1)"></use><use xlink:href="#bbburst-shape-10" width="26.28949047543707" opacity="0.43270295156241045" transform="matrix(0.9006007849522936,-0.4346472433402893,0.4346472433402893,0.9006007849522936,389.60630971371654,-140.1030558441271)" fill="none" stroke="#2c2891" filter="url(#bbburst-blur-2)"></use><use xlink:href="#bbburst-shape-8" width="14.881969442472686" opacity="0.7325913822250646" transform="matrix(0.9979570423338682,0.06388850957909366,-0.06388850957909366,0.9979570423338682,536.0234198914801,24.451760074228503)" fill="none" stroke="#00a19d" filter="url(#bbburst-blur-1)"></use><use xlink:href="#bbburst-shape-6" width="18.18723901266799" opacity="0.5879397019840792" transform="matrix(0.8515576291361311,0.524261007762404,-0.524261007762404,0.8515576291361311,419.3422055727668,22.45762824627866)" fill="#ffa6d5" filter="url(#bbburst-blur-1)"></use><use xlink:href="#bbburst-shape-6" width="29.157252095216094" opacity="0.32224679906339015" transform="matrix(1.07187258077845,0.643108988100264,-0.643108988100264,1.07187258077845,617.3749013007417,-342.1483259876887)" fill="#2c2891" filter="url(#bbburst-blur-3)"></use><use xlink:href="#bbburst-shape-4" width="13.825876948048442" opacity="0.780206893715125" transform="matrix(0.9860243398469017,-0.16660132421286952,0.16660132421286952,0.9860243398469017,262.8920434526066,-68.9480347225196)" fill="#00a19d"></use><use xlink:href="#bbburst-shape-1" width="20.252292106801004" opacity="0.5168432407971506" transform="matrix(0.978368220198998,0.20687103640830162,-0.20687103640830162,0.978368220198998,689.9772093764199,-4.432451039236753)" fill="#00a19d" filter="url(#bbburst-blur-2)"></use><use xlink:href="#bbburst-shape-10" width="30.990138045547177" opacity="0.18398834627016625" transform="matrix(1.1599561356906694,0.4658344805545952,-0.4658344805545952,1.1599561356906694,569.6350353272264,-438.40361432460026)" fill="none" stroke="#2c2891" filter="url(#bbburst-blur-3)"></use><use xlink:href="#bbburst-shape-10" width="40.0649603088672" opacity="0.016169441894312686" transform="matrix(1.675515891119845,0.5051202813240347,-0.5051202813240347,1.675515891119845,308.8565885731166,78.28082999544165)" fill="none" stroke="#2c2891" filter="url(#bbburst-blur-4)"></use><use xlink:href="#bbburst-shape-10" width="14.760886628160751" opacity="0.6748780289574802" transform="matrix(0.8248606778361784,-0.5653360612588235,0.5653360612588235,0.8248606778361784,295.26831445086805,146.00052193518104)" fill="none" stroke="#ffa6d5" filter="url(#bbburst-blur-1)"></use><use xlink:href="#bbburst-shape-1" width="27.997960603506684" opacity="0.17314353394383852" transform="matrix(1.0564744454462711,0.6681030954268916,-0.6681030954268916,1.0564744454462711,1024.3738559438489,-42.07753257703081)" fill="#00a19d" filter="url(#bbburst-blur-3)"></use><use xlink:href="#bbburst-shape-4" width="29.178739922897645" opacity="0.41137620538477093" transform="matrix(0.8269844562403329,0.5622247852388588,-0.5622247852388588,0.8269844562403329,736.1150154410398,295.4560159115587)" fill="#00a19d" filter="url(#bbburst-blur-2)"></use><use xlink:href="#bbburst-shape-1" width="29.32799854732092" opacity="0.13876704943432827" transform="matrix(1.2477414616848956,0.07510822053836572,-0.07510822053836572,1.2477414616848956,45.64490300523477,27.01251216357639)" fill="#00a19d" filter="url(#bbburst-blur-3)"></use><use xlink:href="#bbburst-shape-10" width="17.396183366836595" opacity="0.6211672648469193" transform="matrix(0.9660851947360896,-0.2582235398094679,0.2582235398094679,0.9660851947360896,400.9936779540399,143.73169435877298)" fill="none" stroke="#ff5c58" filter="url(#bbburst-blur-1)"></use><use xlink:href="#bbburst-shape-4" width="7.27165778416349" opacity="0.8569001744513353" transform="matrix(0.9720574177165965,-0.23474321430478526,0.23474321430478526,0.9720574177165965,293.654570486627,-51.737836327814875)" fill="#ffa6d5"></use><use xlink:href="#bbburst-shape-6" width="12.26007993469375" opacity="0.8210379293886148" transform="matrix(0.8543350196705101,0.5197226896765131,-0.5197226896765131,0.8543350196705101,680.4168579469967,34.147851425984925)" fill="#2c2891"></use><use xlink:href="#bbburst-shape-6" width="31.469118624065377" opacity="0.3061589169467863" transform="matrix(1.0557132748929767,0.6693052227606971,-0.6693052227606971,1.0557132748929767,542.8559157735014,260.04479047496)" fill="#2c2891" filter="url(#bbburst-blur-3)"></use><use xlink:href="#bbburst-shape-4" width="11.368024496359926" opacity="0.8933279130672123" transform="matrix(0.8736919120363247,0.48647964278303674,-0.48647964278303674,0.8736919120363247,564.9708279580847,88.95707585853233)" fill="#ff5c58"></use><use xlink:href="#bbburst-shape-10" width="8.297806803152135" opacity="0.9082303827144543" transform="matrix(0.7659576100641429,-0.6428910790988054,0.6428910790988054,0.7659576100641429,135.323211481305,55.216870772479865)" fill="none" stroke="#ffbd9b"></use><use xlink:href="#bbburst-shape-10" width="46.79449922693335" opacity="-0.10039536161463758" transform="matrix(1.7357095571758903,0.22318676736821771,-0.22318676736821771,1.7357095571758903,94.14182384739323,46.20404012537358)" fill="none" stroke="#ffa6d5" filter="url(#bbburst-blur-4)"></use><use xlink:href="#bbburst-shape-6" width="37.562327972657364" opacity="0.14203466650013818" transform="matrix(1.0052472242657005,-0.7429522313756816,0.7429522313756816,1.0052472242657005,-170.1586122111326,-278.8255412172173)" fill="#00a19d" filter="url(#bbburst-blur-3)"></use><use xlink:href="#bbburst-shape-10" width="21.669632555676976" opacity="0.5560525165083718" transform="matrix(0.9999422617155614,0.010745847345262809,-0.010745847345262809,0.9999422617155614,302.23112771993203,177.63435150697393)" fill="none" stroke="#00a19d" filter="url(#bbburst-blur-1)"></use><use xlink:href="#bbburst-shape-10" width="32.34908373565134" opacity="0.31168167688238235" transform="matrix(1.1186097094414642,0.5578640676215694,-0.5578640676215694,1.1186097094414642,895.653068670098,-163.6690270305237)" fill="none" stroke="#ffa6d5" filter="url(#bbburst-blur-3)"></use><use xlink:href="#bbburst-shape-6" width="21.079746668884678" opacity="0.5223859811480713" transform="matrix(0.9885476560222792,0.15090901819592317,-0.15090901819592317,0.9885476560222792,268.66262601190886,118.44722308901203)" fill="#00a19d" filter="url(#bbburst-blur-2)"></use><use xlink:href="#bbburst-shape-1" width="15.412750538821513" opacity="0.6033420257136244" transform="matrix(0.8731798005975802,-0.4873982312528126,0.4873982312528126,0.8731798005975802,92.04804110454592,-88.90995682030416)" fill="#ff5c58" filter="url(#bbburst-blur-1)"></use><use xlink:href="#bbburst-shape-4" width="22.871923724791795" opacity="0.4932408498682245" transform="matrix(0.9087063071573063,0.41743603981032984,-0.41743603981032984,0.9087063071573063,448.17757858017984,-168.86954357874936)" fill="#ffa6d5" filter="url(#bbburst-blur-2)"></use><use xlink:href="#bbburst-shape-10" width="15.397180508919316" opacity="0.498337434542101" transform="matrix(0.8094423100357132,0.5871994096761749,-0.5871994096761749,0.8094423100357132,753.3084987841578,-116.5049681140965)" fill="none" stroke="#ffbd9b" filter="url(#bbburst-blur-2)"></use><use xlink:href="#bbburst-shape-6" width="21.994972714389363" opacity="0.5584446892121187" transform="matrix(0.809048575211381,-0.5877417825443708,0.5877417825443708,0.809048575211381,-33.988441663426016,141.01480671756764)" fill="#ffa6d5" filter="url(#bbburst-blur-1)"></use><use xlink:href="#bbburst-shape-10" width="10.644502823249514" opacity="0.8359543790899896" transform="matrix(0.8661427786183548,0.4997966456943021,-0.4997966456943021,0.8661427786183548,637.733843546721,111.29467290790853)" fill="none" stroke="#ffa6d5"></use><use xlink:href="#bbburst-shape-10" width="10.91605307107062" opacity="0.8106133204688345" transform="matrix(0.971101308566102,0.23866765281705946,-0.23866765281705946,0.971101308566102,405.57970552421517,20.657027318773714)" fill="none" stroke="#2c2891"></use><use xlink:href="#bbburst-shape-8" width="9.712205056892543" opacity="0.881740712532965" transform="matrix(0.9979475235200324,-0.06403702288703304,0.06403702288703304,0.9979475235200324,385.2866099432035,-49.70138824454381)" fill="none" stroke="#2c2891"></use><use xlink:href="#bbburst-shape-4" width="10.078294289203011" opacity="0.7945406875080834" transform="matrix(0.9409065422674706,0.33866632356682963,-0.33866632356682963,0.9409065422674706,466.07314170724675,88.03597021147812)" fill="#ffa6d5"></use><use xlink:href="#bbburst-shape-4" width="32.85626794784327" opacity="0.14280625664797508" transform="matrix(1.1195025702551713,0.5560701351377046,-0.5560701351377046,1.1195025702551713,969.6971448068161,-179.67680965924848)" fill="#ff5c58" filter="url(#bbburst-blur-3)"></use><use xlink:href="#bbburst-shape-10" width="20.708154131165614" opacity="0.16951888782937674" transform="matrix(1.098533566943623,-0.5964260241623606,0.5964260241623606,1.098533566943623,-222.6271310436626,-5.4556827141199165)" fill="none" stroke="#ffbd9b" filter="url(#bbburst-blur-3)"></use><use xlink:href="#bbburst-shape-1" width="30.1459035376235" opacity="-0.10019466827514623" transform="matrix(1.727198259181309,-0.28157800603217364,0.28157800603217364,1.727198259181309,606.595763768855,68.2758730320486)" fill="#ffbd9b" filter="url(#bbburst-blur-4)"></use><use xlink:href="#bbburst-shape-6" width="33.129427055744344" opacity="0.04446943768183764" transform="matrix(1.7172556712169371,0.3369465234622054,-0.3369465234622054,1.7172556712169371,739.0653495060586,69.07722617790364)" fill="#00a19d" filter="url(#bbburst-blur-4)"></use><use xlink:href="#bbburst-shape-4" width="17.164807304003315" opacity="0.7218514658942619" transform="matrix(0.9778937040153604,-0.209102615113056,0.209102615113056,0.9778937040153604,198.6936510648502,-50.38471362054855)" fill="#ffbd9b" filter="url(#bbburst-blur-1)"></use><use xlink:href="#bbburst-shape-6" width="29.277567056944285" opacity="0.5037276025265027" transform="matrix(0.9962823178447648,-0.08614837868389087,0.08614837868389087,0.9962823178447648,157.35864635854838,-108.57500706164939)" fill="#00a19d" filter="url(#bbburst-blur-2)"></use><use xlink:href="#bbburst-shape-6" width="24.002041836942823" opacity="0.5190148441687734" transform="matrix(0.9892477409556868,-0.1462494684232065,0.1462494684232065,0.9892477409556868,113.5403830105219,18.45499862073933)" fill="#ffbd9b" filter="url(#bbburst-blur-2)"></use><use xlink:href="#bbburst-shape-8" width="23.365698767934614" opacity="0.3499595806194342" transform="matrix(0.7278761971092967,-0.6857085690595591,0.6857085690595591,0.7278761971092967,-145.87529683106212,-11.012390970318336)" fill="none" stroke="#ffbd9b" filter="url(#bbburst-blur-2)"></use><use xlink:href="#bbburst-shape-6" width="21.033750749721925" opacity="0.5334693843690801" transform="matrix(0.9626351361665482,0.2708017625821726,-0.2708017625821726,0.9626351361665482,523.0079277252967,-196.3693015961819)" fill="#2c2891" filter="url(#bbburst-blur-2)"></use><use xlink:href="#bbburst-shape-4" width="10.871357388516742" opacity="0.8853558006562416" transform="matrix(0.9835579401033192,-0.18059285273707673,0.18059285273707673,0.9835579401033192,340.9311330120497,55.72201952460449)" fill="#2c2891"></use><use xlink:href="#bbburst-shape-8" width="19.109087455271766" opacity="0.5835606819481788" transform="matrix(0.8578489101934471,0.5139019821716153,-0.5139019821716153,0.8578489101934471,779.1942544024926,6.609277738582875)" fill="none" stroke="#2c2891" filter="url(#bbburst-blur-1)"></use><use xlink:href="#bbburst-shape-4" width="8.824511171151782" opacity="0.7866275339357655" transform="matrix(0.9992639202184771,0.03836167031818313,-0.03836167031818313,0.9992639202184771,386.0135965667012,92.86012913383973)" fill="#ffbd9b"></use><use xlink:href="#bbburst-shape-1" width="11.233179740742582" opacity="0.8436582380058769" transform="matrix(0.7375887582059729,-0.6752501934602987,0.6752501934602987,0.7375887582059729,165.70823648175525,50.85102793537743)" fill="#00a19d"></use><use xlink:href="#bbburst-shape-1" width="10.51329150899628" opacity="0.8613415411781893" transform="matrix(0.8422472014346056,-0.5390915058462477,0.5390915058462477,0.8422472014346056,123.9748900891691,38.36309527244276)" fill="#2c2891"></use><use xlink:href="#bbburst-shape-8" width="28.772707324664786" opacity="0.45651885175259166" transform="matrix(0.7325716504662309,0.6806899271571326,-0.6806899271571326,0.7325716504662309,600.3395140178901,333.9130148309322)" fill="none" stroke="#2c2891" filter="url(#bbburst-blur-2)"></use><use xlink:href="#bbburst-shape-4" width="21.682549985643565" opacity="0.5621058579539319" transform="matrix(0.9982710158892103,0.05877906800489394,-0.05877906800489394,0.9982710158892103,501.92148989735665,175.76408828805688)" fill="#ffa6d5" filter="url(#bbburst-blur-1)"></use><use xlink:href="#bbburst-shape-4" width="33.93809301398023" opacity="0.03337565744391846" transform="matrix(1.2865819114989552,-1.1862575542451541,1.1862575542451541,1.2865819114989552,266.6654003167042,-334.18314361930425)" fill="#00a19d" filter="url(#bbburst-blur-4)"></use><use xlink:href="#bbburst-shape-6" width="37.18714243374522" opacity="-0.09975205458617808" transform="matrix(1.3001450032137813,-1.1713765281147803,1.1713765281147803,1.3001450032137813,256.54792769106933,-448.8817047491539)" fill="#ffa6d5" filter="url(#bbburst-blur-4)"></use><use xlink:href="#bbburst-shape-8" width="20.8794898072921" opacity="0.5845296618117957" transform="matrix(0.733159722580004,0.6800564838205806,-0.6800564838205806,0.733159722580004,829.6424906616978,12.233991915659374)" fill="none" stroke="#2c2891" filter="url(#bbburst-blur-1)"></use><use xlink:href="#bbburst-shape-4" width="11.321314234213736" opacity="0.6779518249350828" transform="matrix(0.9812846715441313,0.19256269989934774,-0.19256269989934774,0.9812846715441313,331.1700541115119,42.71972073279949)" fill="#ffbd9b" filter="url(#bbburst-blur-1)"></use><use xlink:href="#bbburst-shape-10" width="7.571665707645905" opacity="0.864768954285612" transform="matrix(0.8392316319929352,-0.5437740963511177,0.5437740963511177,0.8392316319929352,232.24413216437154,36.340682435341535)" fill="none" stroke="#ffa6d5"></use><use xlink:href="#bbburst-shape-4" width="19.635090999749444" opacity="0.2821827390390169" transform="matrix(1.1867758111648095,-0.3925088203265097,0.3925088203265097,1.1867758111648095,552.2794534563232,-107.52597884296625)" fill="#2c2891" filter="url(#bbburst-blur-3)"></use><use xlink:href="#bbburst-shape-10" width="10.358644411960745" opacity="0.7524233171271328" transform="matrix(0.8279613901420536,-0.5607851071792458,0.5607851071792458,0.8279613901420536,210.58616370236768,-32.569785940628094)" fill="none" stroke="#ffa6d5" filter="url(#bbburst-blur-1)"></use><use xlink:href="#bbburst-shape-10" width="29.691863640639404" opacity="0.2315740505029542" transform="matrix(1.2000799860703726,0.34972564537553474,-0.34972564537553474,1.2000799860703726,371.8724529038084,-396.6905353311981)" fill="none" stroke="#ffbd9b" filter="url(#bbburst-blur-3)"></use><use xlink:href="#bbburst-shape-10" width="7.8844010151340385" opacity="0.9080616542695824" transform="matrix(0.9535236854884731,-0.30131807315937664,0.30131807315937664,0.9535236854884731,246.16652322569217,-9.180599001951578)" fill="none" stroke="#00a19d"></use><use xlink:href="#bbburst-shape-10" width="16.977168756919653" opacity="0.6541380852676841" transform="matrix(0.9980974276237006,-0.06165650793672805,0.06165650793672805,0.9980974276237006,518.1174916402379,37.96971475089674)" fill="none" stroke="#00a19d" filter="url(#bbburst-blur-1)"></use><use xlink:href="#bbburst-shape-4" width="10.894953660385278" opacity="0.700803135962329" transform="matrix(0.9991356654824808,-0.04156828070633049,0.04156828070633049,0.9991356654824808,451.9318318023386,113.06015048035863)" fill="#00a19d" filter="url(#bbburst-blur-1)"></use><use xlink:href="#bbburst-shape-1" width="17.616821576420698" opacity="0.6226004151476846" transform="matrix(0.9757481875351603,0.21889603587513773,-0.21889603587513773,0.9757481875351603,428.1224417984288,-154.2479671701552)" fill="#ff5c58" filter="url(#bbburst-blur-1)"></use><use xlink:href="#bbburst-shape-10" width="8.037934677137269" opacity="0.8802773134938504" transform="matrix(0.9849188986189062,-0.17301665568181773,0.17301665568181773,0.9849188986189062,366.1074238286054,43.60886166548124)" fill="none" stroke="#00a19d"></use><use xlink:href="#bbburst-shape-6" width="20.39055002157349" opacity="0.6224577451924006" transform="matrix(0.9735416293740456,0.22850972818619397,-0.22850972818619397,0.9735416293740456,651.3454989607752,11.27169809818571)" fill="#2c2891" filter="url(#bbburst-blur-1)"></use><use xlink:href="#bbburst-shape-8" width="31.97386219039172" opacity="0.285455441676404" transform="matrix(1.221732985184481,0.2643265270687309,-0.2643265270687309,1.221732985184481,701.8090887206068,-331.46337733071346)" fill="none" stroke="#00a19d" filter="url(#bbburst-blur-3)"></use><use xlink:href="#bbburst-shape-10" width="33.94771122378629" opacity="0.1311293883091299" transform="matrix(1.245544634744503,-0.10544459615922862,0.10544459615922862,1.245544634744503,605.4195096606113,187.5682466683674)" fill="none" stroke="#ffa6d5" filter="url(#bbburst-blur-3)"></use><use xlink:href="#bbburst-shape-4" width="13.465693627572051" opacity="0.8083546596940023" transform="matrix(0.8193665073146396,-0.5732700294721578,0.5732700294721578,0.8193665073146396,136.02549874479053,-5.038943166122181)" fill="#2c2891"></use><use xlink:href="#bbburst-shape-6" width="19.271793999917907" opacity="0.6006776824611992" transform="matrix(0.8656981175106803,0.50056644847459,-0.50056644847459,0.8656981175106803,627.1716213963997,225.09384384872794)" fill="#2c2891" filter="url(#bbburst-blur-1)"></use><use xlink:href="#bbburst-shape-10" width="27.78954982076668" opacity="0.46388433288379705" transform="matrix(0.8696443750692918,0.4936787021032414,-0.4936787021032414,0.8696443750692918,809.2302075621114,135.26722719102247)" fill="none" stroke="#ffa6d5" filter="url(#bbburst-blur-2)"></use><use xlink:href="#bbburst-shape-6" width="11.375678059874792" opacity="0.8422383922753462" transform="matrix(0.8145963153731179,0.5800283122232395,-0.5800283122232395,0.8145963153731179,580.7837335547431,17.29992504321922)" fill="#00a19d"></use><use xlink:href="#bbburst-shape-8" width="15.392051595186807" opacity="0.6099474980639021" transform="matrix(0.8126791513732794,0.5827114182193502,-0.5827114182193502,0.8126791513732794,738.2313886769919,-65.19659502195202)" fill="none" stroke="#ffbd9b" filter="url(#bbburst-blur-1)"></use><use xlink:href="#bbburst-shape-6" width="16.253708440626667" opacity="0.7053088858908314" transform="matrix(0.9340371787680322,-0.3571757952032237,0.3571757952032237,0.9340371787680322,158.95117796114116,-67.55996111492891)" fill="#ffa6d5" filter="url(#bbburst-blur-1)"></use><use xlink:href="#bbburst-shape-8" width="9.957908369530122" opacity="0.8709375093734354" transform="matrix(0.950189125659514,0.3116739088829998,-0.3116739088829998,0.950189125659514,464.83573536612414,36.72303798239153)" fill="none" stroke="#00a19d"></use><use xlink:href="#bbburst-shape-4" width="24.220886219896194" opacity="0.16138580543226289" transform="matrix(0.9405159539352098,-0.8233648889728917,0.8233648889728917,0.9405159539352098,-309.4317272133137,-46.607717724250165)" fill="#ff5c58" filter="url(#bbburst-blur-3)"></use><use xlink:href="#bbburst-shape-6" width="7.504747137900432" opacity="0.8330094076148457" transform="matrix(0.9043491997825576,0.4267933046014754,-0.4267933046014754,0.9043491997825576,558.5038347482516,111.28526238342118)" fill="#2c2891"></use><use xlink:href="#bbburst-shape-8" width="32.31006309405843" opacity="0.3682937624559909" transform="matrix(0.8834846523254533,-0.4684601040701044,0.4684601040701044,0.8834846523254533,-17.526590805673095,-130.78102377739899)" fill="none" stroke="#ffa6d5" filter="url(#bbburst-blur-2)"></use><use xlink:href="#bbburst-shape-10" width="29.97888325271625" opacity="0.3201859047831024" transform="matrix(1.1561569600724733,-0.4751853150887323,0.4751853150887323,1.1561569600724733,399.9478211153393,169.58199926119016)" fill="none" stroke="#2c2891" filter="url(#bbburst-blur-3)"></use><use xlink:href="#bbburst-shape-4" width="10.08325402578944" opacity="0.8758668564743975" transform="matrix(0.8318659636420241,-0.554976592780206,0.554976592780206,0.8318659636420241,226.62991209895725,88.2661373948252)" fill="#2c2891"></use><use xlink:href="#bbburst-shape-8" width="6.741774422397854" opacity="0.8385558704356589" transform="matrix(0.8483318879304889,-0.5294648316180145,0.5294648316180145,0.8483318879304889,193.64791928894604,-9.722917101174346)" fill="none" stroke="#00a19d"></use><use xlink:href="#bbburst-shape-4" width="13.953113689960121" opacity="0.5910025996711457" transform="matrix(0.9983587995012664,-0.05726873019711632,0.05726873019711632,0.9983587995012664,453.7854618420286,-162.86857965137915)" fill="#00a19d" filter="url(#bbburst-blur-1)"></use><use xlink:href="#bbburst-shape-10" width="17.555719563915527" opacity="0.6480277733907948" transform="matrix(0.9574408099966724,0.28862968550188317,-0.28862968550188317,0.9574408099966724,498.556488985461,172.64986290745554)" fill="none" stroke="#00a19d" filter="url(#bbburst-blur-1)"></use><use xlink:href="#bbburst-shape-4" width="16.384865454138314" opacity="0.6421205691185363" transform="matrix(0.9892530347491336,-0.1462136561324882,0.1462136561324882,0.9892530347491336,189.77017552619293,78.3308345155192)" fill="#00a19d" filter="url(#bbburst-blur-1)"></use><use xlink:href="#bbburst-shape-10" width="8.609985654666234" opacity="0.9925962284433841" transform="matrix(0.8500765936511695,0.5266590784619823,-0.5266590784619823,0.8500765936511695,605.6351554449,60.73958325150062)" fill="none" stroke="#00a19d"></use><use xlink:href="#bbburst-shape-10" width="34.72765307361922" opacity="0.022951927202616185" transform="matrix(1.5517187665721481,-0.8091161038242974,0.8091161038242974,1.5517187665721481,-308.81658968867646,-461.5597642824658)" fill="none" stroke="#ffa6d5" filter="url(#bbburst-blur-4)"></use><use xlink:href="#bbburst-shape-1" width="13.90968739537818" opacity="0.6768280189908202" transform="matrix(0.9794979573808883,-0.20145409275233808,0.20145409275233808,0.9794979573808883,449.09813028151694,-40.580520882493545)" fill="#ffa6d5" filter="url(#bbburst-blur-1)"></use><use xlink:href="#bbburst-shape-1" width="30.257497544123403" opacity="0.14350932573366304" transform="matrix(0.9264120730154874,0.8392024016714604,-0.8392024016714604,0.9264120730154874,849.3078913201412,380.4347484711057)" fill="#2c2891" filter="url(#bbburst-blur-3)"></use><use xlink:href="#bbburst-shape-10" width="32.66087677335278" opacity="0.3398543016351768" transform="matrix(0.906855593196439,0.42144149426502203,-0.42144149426502203,0.906855593196439,381.39087969156975,-211.56327840171176)" fill="none" stroke="#ffa6d5" filter="url(#bbburst-blur-2)"></use><use xlink:href="#bbburst-shape-6" width="21.032646228306774" opacity="0.4589353689749759" transform="matrix(0.9639528486360062,-0.26607312078924644,0.26607312078924644,0.9639528486360062,271.05137411231374,-225.9468278988063)" fill="#2c2891" filter="url(#bbburst-blur-2)"></use><use xlink:href="#bbburst-shape-6" width="12.275569442033504" opacity="0.7872967098589839" transform="matrix(0.9859391817888837,-0.16710454755471638,0.16710454755471638,0.9859391817888837,324.2672483990549,-89.0242375720419)" fill="#2c2891"></use><use xlink:href="#bbburst-shape-10" width="9.803551062258592" opacity="0.8728779040795787" transform="matrix(0.8094809760970344,0.587146105613409,-0.587146105613409,0.8094809760970344,605.6747843880717,21.98200253747177)" fill="none" stroke="#ffa6d5"></use><use xlink:href="#bbburst-shape-4" width="25.506485938704312" opacity="0.2979938927370678" transform="matrix(1.2499748753179776,-0.007925343765800414,0.007925343765800414,1.2499748753179776,76.27804751848515,-16.152933819066618)" fill="#ffbd9b" filter="url(#bbburst-blur-3)"></use><use xlink:href="#bbburst-shape-6" width="37.9898573008024" opacity="0.11175018195702058" transform="matrix(1.1966788730234237,0.36119201937389045,-0.36119201937389045,1.1966788730234237,800.5660195806191,-371.9394415374481)" fill="#2c2891" filter="url(#bbburst-blur-3)"></use><use xlink:href="#bbburst-shape-4" width="22.38190157141807" opacity="0.2795762741189246" transform="matrix(1.1948006622130565,0.3673572887193633,-0.3673572887193633,1.1948006622130565,604.3447224147891,-398.3767288357976)" fill="#ffa6d5" filter="url(#bbburst-blur-3)"></use><use xlink:href="#bbburst-shape-6" width="8.787357591059013" opacity="0.8581649591697555" transform="matrix(0.8461681620810368,0.5329159797570346,-0.5329159797570346,0.8461681620810368,545.8323216434562,54.02366342189754)" fill="#ffbd9b"></use><use xlink:href="#bbburst-shape-4" width="28.246754183789523" opacity="0.4206068512658384" transform="matrix(0.9817724650106887,-0.19006006141963644,0.19006006141963644,0.9817724650106887,567.4450419547363,-31.948207290225298)" fill="#ffa6d5" filter="url(#bbburst-blur-2)"></use><use xlink:href="#bbburst-shape-6" width="6.560230289707844" opacity="0.9247844723349816" transform="matrix(0.9772425806506495,-0.21212481835763308,0.21212481835763308,0.9772425806506495,336.0025283130529,33.607128315074476)" fill="#00a19d"></use><use xlink:href="#bbburst-shape-1" width="36.701571573926024" opacity="0.24612570416480795" transform="matrix(1.2330096213551511,-0.2053954080441596,0.2053954080441596,1.2330096213551511,463.54579106246587,205.16422419253854)" fill="#ff5c58" filter="url(#bbburst-blur-3)"></use><use xlink:href="#bbburst-shape-8" width="5.925869606809882" opacity="0.9545127216854477" transform="matrix(0.7377664577753417,-0.6750560375121647,0.6750560375121647,0.7377664577753417,135.48928190229543,125.86030858108415)" fill="none" stroke="#2c2891"></use><use xlink:href="#bbburst-shape-4" width="9.185888088621653" opacity="0.9365159466058145" transform="matrix(0.9924294616344446,-0.12281597485655744,0.12281597485655744,0.9924294616344446,360.1737412061055,-21.381325841862918)" fill="#ff5c58"></use><use xlink:href="#bbburst-shape-10" width="26.840368469946558" opacity="0.4689813402217736" transform="matrix(0.8442149686268084,-0.5360047450782847,0.5360047450782847,0.8442149686268084,-58.29152840849571,14.58083649186949)" fill="none" stroke="#ffa6d5" filter="url(#bbburst-blur-2)"></use><use xlink:href="#bbburst-shape-4" width="14.34844487160544" opacity="0.7151333531416835" transform="matrix(0.7482759830604233,0.6633875588032663,-0.6633875588032663,0.7482759830604233,578.4577178878618,194.86986240709126)" fill="#ffa6d5" filter="url(#bbburst-blur-1)"></use><use xlink:href="#bbburst-shape-10" width="11.467662471847786" opacity="0.7509643832446637" transform="matrix(0.9329229976927792,-0.36007593695763496,0.36007593695763496,0.9329229976927792,333.95137214003347,-46.03615375768652)" fill="none" stroke="#ff5c58" filter="url(#bbburst-blur-1)"></use><use xlink:href="#bbburst-shape-10" width="9.85648279174652" opacity="0.7261306139939063" transform="matrix(0.9559806670989713,-0.2934296578960717,0.2934296578960717,0.9559806670989713,253.36437460699645,-101.71693283386753)" fill="none" stroke="#ffa6d5" filter="url(#bbburst-blur-1)"></use><use xlink:href="#bbburst-shape-6" width="30.947942123896652" opacity="0.3620312073281178" transform="matrix(0.8974603891790254,0.44109505761755285,-0.44109505761755285,0.8974603891790254,694.8878869016085,-220.5743146933407)" fill="#00a19d" filter="url(#bbburst-blur-2)"></use><use xlink:href="#bbburst-shape-6" width="28.63249914978421" opacity="0.28636175287126686" transform="matrix(1.1478587976652719,0.49489411051500315,-0.49489411051500315,1.1478587976652719,555.1129992569188,253.82110377272238)" fill="#00a19d" filter="url(#bbburst-blur-3)"></use><use xlink:href="#bbburst-shape-6" width="18.80454618787647" opacity="0.5530881800661567" transform="matrix(0.9639375096888917,-0.2661286858171773,0.2661286858171773,0.9639375096888917,447.0155901807909,135.3727477512728)" fill="#ffa6d5" filter="url(#bbburst-blur-2)"></use><use xlink:href="#bbburst-shape-6" width="9.192951663459095" opacity="0.7767330013473012" transform="matrix(0.7361959333258808,-0.6767684594855431,0.6767684594855431,0.7361959333258808,175.685041633273,195.90542834056737)" fill="#00a19d" filter="url(#bbburst-blur-1)"></use><use xlink:href="#bbburst-shape-10" width="6.547392041062946" opacity="0.9181203800975323" transform="matrix(0.8585806873012887,-0.5126784600441555,0.5126784600441555,0.8585806873012887,191.46797216944861,95.08617478537451)" fill="none" stroke="#ffa6d5"></use><use xlink:href="#bbburst-shape-10" width="12.461815348494367" opacity="0.7070157115244934" transform="matrix(0.8104973540146441,0.5857422975466777,-0.5857422975466777,0.8104973540146441,643.5383027639825,203.21741235677143)" fill="none" stroke="#ffa6d5" filter="url(#bbburst-blur-1)"></use><use xlink:href="#bbburst-shape-4" width="21.664247256847055" opacity="0.4844602649237575" transform="matrix(0.8264670042182461,0.5629851604958318,-0.5629851604958318,0.8264670042182461,696.5250913092809,-154.32339577194506)" fill="#2c2891" filter="url(#bbburst-blur-2)"></use><use xlink:href="#bbburst-shape-8" width="11.195319060062673" opacity="0.7547234650411603" transform="matrix(0.9953668728776098,0.09614982255754849,-0.09614982255754849,0.9953668728776098,530.2678628239534,-50.6438018556924)" fill="none" stroke="#ffa6d5" filter="url(#bbburst-blur-1)"></use><use xlink:href="#bbburst-shape-10" width="9.455948983325285" opacity="0.778202820961972" transform="matrix(0.9793416558719057,-0.20221256408560218,0.20221256408560218,0.9793416558719057,385.6558815303788,79.19397178401209)" fill="none" stroke="#2c2891"></use><use xlink:href="#bbburst-shape-10" width="9.550332404478464" opacity="0.922476172892355" transform="matrix(0.9939128440987479,-0.11016922590060269,0.11016922590060269,0.9939128440987479,385.5749414407922,8.828551607496536)" fill="none" stroke="#ffbd9b"></use><use xlink:href="#bbburst-shape-6" width="8.533198022288193" opacity="0.8714706734306127" transform="matrix(0.9976350343177701,-0.06873382210950872,0.06873382210950872,0.9976350343177701,425.88014782845954,-3.6616149512681773)" fill="#2c2891"></use><use xlink:href="#bbburst-shape-8" width="21.44546327846841" opacity="0.40648595804007226" transform="matrix(0.9633499391484975,-0.2682478233697079,0.2682478233697079,0.9633499391484975,280.3951371020636,284.6103878111293)" fill="none" stroke="#ffa6d5" filter="url(#bbburst-blur-2)"></use><use xlink:href="#bbburst-shape-10" width="44.38279297638356" opacity="0.13594659616534388" transform="matrix(1.122164025222197,-0.5506794898097408,0.5506794898097408,1.122164025222197,-128.09730633451017,230.07301217692873)" fill="none" stroke="#00a19d" filter="url(#bbburst-blur-3)"></use><use xlink:href="#bbburst-shape-4" width="32.627883160077744" opacity="0.19276594969909022" transform="matrix(1.149328623997176,-0.4914709697029499,0.4914709697029499,1.149328623997176,540.8291340509853,19.80045348600771)" fill="#ffa6d5" filter="url(#bbburst-blur-3)"></use><use xlink:href="#bbburst-shape-10" width="24.03362896686962" opacity="0.16075822507269522" transform="matrix(1.0740422346969383,-0.6394789113701931,0.6394789113701931,1.0740422346969383,33.00460193520428,-386.5744369324691)" fill="none" stroke="#00a19d" filter="url(#bbburst-blur-3)"></use><use xlink:href="#bbburst-shape-10" width="21.96896868991258" opacity="0.5861180430384105" transform="matrix(0.9400653957490551,-0.3409942106769151,0.3409942106769151,0.9400653957490551,424.70617280982435,100.51821512927944)" fill="none" stroke="#ffa6d5" filter="url(#bbburst-blur-1)"></use><use xlink:href="#bbburst-shape-4" width="7.206059650154509" opacity="0.9135177569780277" transform="matrix(0.8463524192422776,-0.5326233025720374,0.5326233025720374,0.8463524192422776,149.96037195873666,82.4182001944501)" fill="#ffbd9b"></use><use xlink:href="#bbburst-shape-4" width="23.88025618122662" opacity="0.03480367236667237" transform="matrix(1.331632077419297,-1.1354540987587158,1.1354540987587158,1.331632077419297,165.57790509482754,-483.93080952350834)" fill="#ff5c58" filter="url(#bbburst-blur-4)"></use><use xlink:href="#bbburst-shape-1" width="15.770447745275156" opacity="0.5387599291742059" transform="matrix(0.9403684209126943,0.34015765896149636,-0.34015765896149636,0.9403684209126943,689.1838020845961,-110.36424194962507)" fill="#ff5c58" filter="url(#bbburst-blur-2)"></use><use xlink:href="#bbburst-shape-4" width="28.473956017203903" opacity="0.16576777548913768" transform="matrix(1.2499998126118017,-0.0006844490196741608,0.0006844490196741608,1.2499998126118017,307.0299010311501,267.8987923268811)" fill="#00a19d" filter="url(#bbburst-blur-3)"></use></svg>